<svg width="13" height="12" viewBox="0 0 13 12" fill="none" xmlns="http://www.w3.org/2000/svg">
<path d="M12.5843 9.78647H11.2733V8.62146C11.2733 8.55738 11.2143 8.50495 11.1422 8.50495H10.3555C10.2834 8.50495 10.2244 8.55738 10.2244 8.62146V9.78647H8.91341C8.8413 9.78647 8.78231 9.8389 8.78231 9.90297V10.602C8.78231 10.6661 8.8413 10.7185 8.91341 10.7185H10.2244V11.8835C10.2244 11.9476 10.2834 12 10.3555 12H11.1422C11.2143 12 11.2733 11.9476 11.2733 11.8835V10.7185H12.5843C12.6564 10.7185 12.7154 10.6661 12.7154 10.602V9.90297C12.7154 9.8389 12.6564 9.78647 12.5843 9.78647ZM4.08718 5.80212C4.07243 5.67542 4.06424 5.54727 4.06424 5.41766C4.06424 5.18612 4.08882 4.96039 4.1347 4.7405C4.14617 4.68807 4.11504 4.63419 4.06096 4.61235C3.83808 4.52351 3.63323 4.40119 3.45625 4.24682C3.24769 4.06713 3.08358 3.85078 2.97438 3.61157C2.86519 3.37237 2.8133 3.11556 2.82203 2.85754C2.83678 2.39008 3.04819 1.94592 3.41691 1.61098C3.8217 1.24254 4.36577 1.04157 4.94426 1.0474C5.46704 1.05177 5.97178 1.23089 6.35362 1.54836C6.48309 1.65612 6.59452 1.77553 6.68794 1.90369C6.72071 1.94883 6.78462 1.96776 6.84034 1.95029C7.12877 1.86145 7.43358 1.79883 7.74659 1.76971C7.83836 1.76097 7.89081 1.67359 7.84984 1.60078C7.31723 0.6644 6.22907 0.0178169 4.97049 0.000341694C3.15471 -0.0244149 1.64047 1.29933 1.64047 2.91288C1.64047 3.82742 2.11408 4.64293 2.85645 5.17738C2.33531 5.39145 1.85515 5.68707 1.4389 6.05697C0.540841 6.85355 0.0328167 7.90497 4.09781e-05 9.02775C-0.000396423 9.0433 0.00267156 9.05876 0.00906399 9.07323C0.0154564 9.08771 0.025044 9.10089 0.0372619 9.11202C0.0494798 9.12315 0.0640807 9.13199 0.0802043 9.13803C0.096328 9.14407 0.113648 9.14717 0.131144 9.14717H1.0505C1.12097 9.14717 1.17997 9.09766 1.18161 9.03504C1.21274 8.1904 1.59786 7.39965 2.27468 6.79966C2.75648 6.37152 3.34645 6.07444 3.99049 5.93027C4.05276 5.91425 4.09537 5.86037 4.08718 5.80212ZM11.4699 5.41766C11.4699 3.8245 10.0294 2.52988 8.24314 2.50512C6.42737 2.48037 4.91477 3.80412 4.91477 5.41766C4.91477 6.3322 5.39002 7.14771 6.13075 7.68216C5.60422 7.89905 5.12489 8.19681 4.71483 8.56175C3.81678 9.35833 3.30875 10.4098 3.27598 11.5311C3.27554 11.5466 3.27861 11.5621 3.285 11.5766C3.29139 11.591 3.30098 11.6042 3.3132 11.6153C3.32542 11.6265 3.34002 11.6353 3.35614 11.6414C3.37227 11.6474 3.38959 11.6505 3.40708 11.6505H4.3248C4.39527 11.6505 4.45427 11.601 4.45591 11.5384C4.48704 10.6937 4.87216 9.90297 5.54898 9.30299C6.2553 8.67534 7.19268 8.3302 8.19234 8.3302C10.0016 8.3302 11.4699 7.02684 11.4699 5.41766ZM9.67545 6.73559C9.27886 7.088 8.75281 7.28169 8.19234 7.28169C7.63188 7.28169 7.10583 7.088 6.70924 6.73559C6.51134 6.56064 6.35497 6.35218 6.24941 6.12254C6.14384 5.8929 6.09123 5.64677 6.09469 5.39873C6.09961 4.92108 6.31429 4.45944 6.68957 4.11722C7.08288 3.75897 7.60894 3.55946 8.17104 3.55364C8.72659 3.54927 9.26575 3.7415 9.66234 4.08663C10.0688 4.44051 10.2916 4.91379 10.2916 5.41766C10.29 5.91571 10.072 6.38317 9.67545 6.73559Z" fill="white"/>
</svg>
